PathFileType	4	(X/Y/Z)	Patient4_TMGait_0pt3_03_left_05.trc.trc
DataRate	CameraRate	NumFrames	NumMarkers	Units	OrigDataRate	OrigDataStartFrame	OrigNumFrames
53.231939163498	53.231939163498	5	33	mm	53.231939163498	36	       141
Frame#	Time	Sacral			L.Shoulder			Chest			R.Shoulder			Neck			R.ASIS			L.ASIS			R.Thigh.Superior			R.Thigh.Lateral			R.Thigh.Inferior			R.Patella			L.Thigh.Superior			L.Thigh.Lateral			L.Thigh.Inferior			L.Patella			L.Shank.Superior			L.Shank.Lateral			L.Shank.Inferior			R.Shank.Superior			R.Shank.Lateral			R.Shank.Inferior			R.Heel			R.Midfoot.Superior			R.Midfoot.Lateral			R.Toe			L.Heel			L.Midfoot.Lateral			L.Midfoot.Superior			L.Toe			L.Elbow			L.Wrist			R.Elbow			R.Wrist			
		X1	Y1	Z1	X2	Y2	Z2	X3	Y3	Z3	X4	Y4	Z4	X5	Y5	Z5	X6	Y6	Z6	X7	Y7	Z7	X8	Y8	Z8	X9	Y9	Z9	X10	Y10	Z10	X11	Y11	Z11	X12	Y12	Z12	X13	Y13	Z13	X14	Y14	Z14	X15	Y15	Z15	X16	Y16	Z16	X17	Y17	Z17	X18	Y18	Z18	X19	Y19	Z19	X20	Y20	Z20	X21	Y21	Z21	X22	Y22	Z22	X23	Y23	Z23	X24	Y24	Z24	X25	Y25	Z25	X26	Y26	Z26	X27	Y27	Z27	X28	Y28	Z28	X29	Y29	Z29	X30	Y30	Z30	X31	Y31	Z31	X32	Y32	Z32	X33	Y33	Z33	

36	9.057500000000	754.538381427993	1009.288589577403	538.081255617878	913.807726424188	1421.957174087984	317.477677324697	1043.257341181230	1353.776973525705	458.751690149928	996.557557719628	1436.880448543698	640.943152331350	918.051176196594	1486.501185112997	474.120880340892	992.544357852947	928.844519964083	622.979343402270	944.933712426562	954.649120978090	353.706647366397	979.228397223512	715.072315230920	595.455123788267	876.442143738038	622.598750286704	662.618898644680	930.472928987269	556.140162028388	578.667134604779	906.201921134479	468.248271817310	585.184394943238	1018.078934553286	763.634539260547	391.537060531838	954.799436816638	636.087642619834	320.182523619715	1051.207994737946	571.474000932887	382.649341564696	1062.683335088034	499.708641675275	385.943997403646	1040.080129988248	426.381459235696	373.907914908658	959.942634357663	309.686928013739	313.209710894667	1016.442621845386	197.109874780687	378.014518646454	855.096810629508	389.446588323004	594.439510596343	761.033524636777	307.965952839743	661.159321442134	772.863720952555	206.017099524670	596.981109465110	601.560441859570	64.972240332068	571.146782687480	778.394475008015	100.162937832881	605.213064774181	684.688336986635	47.554351761973	643.376829746633	891.192713199189	36.988836154351	630.841378077080	893.441215698861	39.252144033178	405.060190184907	972.101743900982	36.549539641151	329.033596672734	1054.381000011933	96.915439551781	361.286908648551	1183.227466620194	44.399017746591	339.230648061897	781.295436381910	1093.621438412808	230.294838235398	761.337253642611	833.624123270098	261.465589811444	1175.286861580740	1151.756887102573	753.992303449781	1420.962533900015	1189.327901193798	692.183124676754	
37	9.076285714286	755.251131090250	1009.675839238868	532.508865708901	915.393697615864	1422.592856090626	313.259526584474	1044.025795221313	1354.388039820702	455.251184948197	996.077707842599	1437.178996341452	637.262767045670	918.544215875622	1487.000324442594	470.136695655857	992.670318650099	929.372119849082	619.070788057290	946.934113111965	954.893389553472	349.551877450435	978.877120154396	715.450056111259	592.804198972110	875.492499028795	623.557459908462	659.929143545682	930.137858777810	556.360454053568	576.898256432337	905.688507028680	468.035496319447	584.027101121973	1019.663511373955	763.722855139450	388.475747596807	956.414032491569	635.953098732638	317.386977653203	1052.435110840549	571.158801158064	380.378733463183	1063.701063825848	498.912183088692	384.096791028417	1040.029850886433	425.494192827571	372.499625436015	958.661565142569	309.595505532460	312.013849026640	1012.991826594625	196.556455978342	377.695371863966	853.466446690748	389.888179295719	593.345770331308	758.061419169125	309.880702126583	659.981607286883	769.317115105430	207.294562555005	596.726267995456	596.682811192181	67.986402325905	571.226529033449	773.862024074725	100.794982828550	605.369497186764	679.569405818897	49.259447011492	643.402914928320	885.696386747852	36.768687476273	630.879232463845	888.027842889213	39.323695117817	405.021879306366	966.696051918406	36.671403592570	329.051629898594	1049.019921216667	96.925918032086	361.408402676952	1177.887916646723	44.140085825720	339.281937700165	785.855613312853	1093.599001557175	223.195502721049	769.711012584282	833.052025699777	252.069041460460	1173.011360386591	1150.267313081781	750.134591381139	1421.212401597878	1179.015458724619	692.112371270886	
38	9.095071428571	755.883206135683	1010.111884577659	526.906758162577	917.187668359840	1423.266976218604	309.089130560875	1044.854254478239	1354.996415880882	451.909486213364	995.533657296876	1437.544452060842	633.669791090654	919.114469538091	1487.545887208340	466.213655107016	992.633517892583	929.918934966945	615.208636460125	948.848094121262	955.157725790302	345.421092923716	978.608448634186	715.913367588518	590.103269503635	874.765520842540	624.500966126002	657.202713038688	930.103949761122	556.614102687350	575.116761785971	905.614547367177	467.734290147971	582.947641770276	1020.821472134408	763.567161300700	385.053458827027	957.167005261618	635.710427685717	314.432292640058	1052.812729986478	570.656448933319	377.810432827200	1063.842556324624	498.070157183346	381.941730396737	1039.187729740538	424.609625282764	370.845327199036	956.650521531715	309.381651826265	310.773117971022	1009.193990727118	196.051556440330	377.226387295006	852.144111253923	390.312703413922	592.269930868992	755.353696632866	311.865243011212	658.769959668449	765.981679596628	208.625886776841	596.452277409118	591.897071887312	71.204744474980	571.284253923791	769.458707611340	101.454530418465	605.527201430751	674.512136512751	51.091700650948	643.413420064978	880.211567036218	36.584222206070	630.900965055298	882.572595219107	39.371924021386	405.001530074680	961.232615093149	36.752753985576	329.063218332758	1043.584775224477	96.936461385859	361.459242142386	1172.481073922298	43.930901529316	339.285644721699	790.890104015110	1093.577967290401	216.020628264156	778.524932448833	832.572431580895	242.725108828161	1170.212225668740	1148.517081297677	746.436291195895	1420.707954289022	1167.627048442921	692.603140075566	
39	9.113857142857	756.416121045296	1010.582882251652	521.319463444223	919.141877980115	1423.958698474398	304.976156894065	1045.711136139079	1355.591769567762	448.720748483938	994.925406208936	1437.983931316930	630.158640710807	919.747345588694	1488.129437257942	462.345894504937	992.431640313537	930.479541921718	611.397739353858	950.637927140607	955.456223265580	341.325339222001	978.478336030987	716.460632831820	587.331458620904	874.366815765627	625.390701298610	654.441469091891	930.482069493226	556.884883282622	573.308973412009	906.091914454252	467.313263858008	581.950870385050	1021.587689685449	763.216514301872	381.300499746501	957.138748413707	635.393046210005	311.350885759973	1052.413048607922	570.008351973732	374.986801525372	1063.157798139429	497.205308786382	379.528923118063	1037.619836486595	423.742021437013	368.979269691340	953.981044585860	309.068892059000	309.475255594697	1005.075701995827	195.589028878130	376.622876558419	851.227575506227	390.689706472207	591.219323079813	753.001466575096	313.912410404577	657.535408034520	762.916032403694	210.004843244251	596.168194955204	587.225398074113	74.661503914967	571.331432713425	765.215740786799	102.133804670208	605.693598554664	669.533764251923	53.063455980169	643.416384850261	874.752854549085	36.438931312198	630.904033013542	877.064066927748	39.400562247318	404.990441281408	955.702934648780	36.792160415193	329.059812548352	1038.081604088966	96.926420492691	361.443461723228	1167.005717611551	43.733219870611	339.246033352478	796.420543859033	1093.505285043502	208.813838784996	787.821463804381	832.139975513880	233.490039413281	1166.764812297962	1146.474969738024	742.977897289235	1419.183044399561	1155.173332760244	693.638037145563	
40	9.132642857143	756.839315735939	1011.070650047691	515.777219035559	921.200155515971	1424.652834444000	300.932204056072	1046.556853354576	1356.172631677281	445.680153083429	994.237371432636	1438.495810929715	626.730306543627	920.417021788990	1488.742678793943	458.533335124363	992.069642343804	931.052582056908	607.639450204580	952.289788307155	955.796858223017	337.275300256025	978.545142438566	717.087225296223	584.492397036837	874.386348290754	626.193549160593	651.657586904795	931.376398303046	557.155934482994	571.478078361766	907.215877510650	466.753447095428	581.048865222022	1022.020105125912	762.717135458573	377.274307310293	956.454010016697	635.031903470328	308.182889286681	1051.348218630471	569.253652594943	371.970584529228	1061.745191855264	496.335430403203	376.927925062577	1035.429634094053	422.901338317571	366.952144528856	950.761438622263	308.682259746643	308.118666398690	1000.680010847196	195.162142439700	375.913435180775	850.811883889827	390.995833351673	590.209952571986	751.092486393515	316.020619378430	656.295010886858	760.181195097660	211.432838773946	595.890980297542	582.700767328781	78.404456577656	571.384041305162	761.167856096766	102.824528463087	605.878930685534	664.657121548227	55.195135854616	643.423746616952	869.335828132923	36.332613092111	630.887597754869	871.501380733022	39.411875506503	404.981563511277	950.110116918437	36.793864102486	329.037027424308	1032.520623285943	96.887836998599	361.371251673851	1161.468708062213	43.529118411784	339.172480771639	802.433942385360	1093.345324297509	201.625179412591	797.636912689821	831.722510263309	224.408563098750	1162.544928273398	1144.123137639799	739.838188479052	1416.378790768286	1141.669901367550	695.185610641764	
